<?xml version="1.0" encoding="UTF-8"?>
<svg width="700pt" height="700pt" version="1.1" viewBox="0 0 700 700" xmlns="http://www.w3.org/2000/svg">
 <path d="m394 35.578c-0.82422-3.5-3.7109-6.1406-7.2617-6.6484-24.359-3.5703-49.105-3.5703-73.465 0-3.5508 0.50781-6.4414 3.1484-7.2617 6.6484l-9.2031 39.113c-19.074 4.9336-37.379 12.512-54.371 22.504 0.015625 0-34.16-21.141-34.16-21.141-3.0469-1.8906-6.9492-1.7148-9.8164 0.42187-19.758 14.719-37.258 32.219-51.977 51.977-2.1367 2.8711-2.3086 6.7734-0.42188 9.8164l21.141 34.176c-9.9922 16.977-17.57 35.281-22.523 54.355 0.015625 0-39.094 9.2031-39.094 9.2031-3.5 0.82422-6.1406 3.7109-6.6484 7.2617-3.5703 24.359-3.5703 49.105 0 73.465 0.50781 3.5508 3.1484 6.4414 6.6484 7.2617l39.113 9.2031c4.9336 19.074 12.512 37.379 22.504 54.371 0-0.015625-21.141 34.16-21.141 34.16-1.8906 3.0469-1.7148 6.9492 0.42188 9.8164 14.719 19.758 32.219 37.258 51.977 51.977 2.8711 2.1367 6.7734 2.3086 9.8164 0.42188l34.176-21.141c16.977 9.9922 35.281 17.57 54.355 22.523 0-0.015625 9.2031 39.094 9.2031 39.094 0.82422 3.5 3.7109 6.1406 7.2617 6.6484 24.359 3.5703 49.105 3.5703 73.465 0 3.5508-0.50781 6.4414-3.1484 7.2617-6.6484l9.2031-39.113c19.074-4.9336 37.379-12.512 54.371-22.504-0.015624 0 34.16 21.141 34.16 21.141 3.0469 1.8906 6.9492 1.7148 9.8164-0.42188 19.758-14.719 37.258-32.219 51.977-51.977 2.1367-2.8711 2.3086-6.7734 0.42187-9.8164l-21.141-34.176c9.9922-16.977 17.57-35.281 22.523-54.355-0.015625 0 39.094-9.2031 39.094-9.2031 3.5-0.82422 6.1406-3.7109 6.6484-7.2617 3.5703-24.359 3.5703-49.105 0-73.465-0.50781-3.5508-3.1484-6.4414-6.6484-7.2617l-39.113-9.2031c-4.9336-19.074-12.512-37.379-22.504-54.371 0 0.015624 21.141-34.16 21.141-34.16 1.8906-3.0469 1.7148-6.9492-0.42187-9.8164-14.719-19.758-32.219-37.258-51.977-51.977-2.8711-2.1367-6.7734-2.3086-9.8164-0.42187l-34.176 21.141c-16.977-9.9922-35.281-17.57-54.355-22.523 0 0.015625-9.2031-39.094-9.2031-39.094zm-15.664 9.8867 9.0664 38.449c0.76953 3.2383 3.3086 5.7578 6.5469 6.5117 20.895 4.8477 40.844 13.109 59.027 24.465 2.8359 1.75 6.4062 1.7656 9.2383 0.015625l33.602-20.789c14.91 11.707 28.367 25.148 40.074 40.074l-20.789 33.602c-1.75 2.8359-1.7344 6.4062 0.015625 9.2383 11.359 18.184 19.617 38.133 24.465 59.027 0.75391 3.2383 3.2734 5.7734 6.5117 6.5469l38.449 9.0664c2.2734 18.812 2.2734 37.852 0.015626 56.664 0 0-38.465 9.0664-38.465 9.0664-3.2383 0.76953-5.7578 3.3086-6.5117 6.5469-4.8477 20.895-13.109 40.844-24.465 59.027-1.75 2.8359-1.7656 6.4062-0.015625 9.2383l20.789 33.602c-11.707 14.91-25.148 28.367-40.074 40.074l-33.602-20.789c-2.8359-1.75-6.4062-1.7344-9.2383 0.015626-18.184 11.359-38.133 19.617-59.027 24.465-3.2383 0.75391-5.7734 3.2734-6.5469 6.5117l-9.0664 38.449c-18.812 2.2734-37.852 2.2734-56.664 0.015625l-9.0664-38.465c-0.76953-3.2383-3.3086-5.7578-6.5469-6.5117-20.895-4.8477-40.844-13.109-59.027-24.465-2.8359-1.75-6.4062-1.7656-9.2383-0.015626l-33.602 20.789c-14.91-11.707-28.367-25.148-40.074-40.074 0 0 20.789-33.602 20.789-33.602 1.75-2.8359 1.7344-6.4062-0.015625-9.2383-11.359-18.184-19.617-38.133-24.465-59.027-0.75391-3.2383-3.2734-5.7734-6.5117-6.5469l-38.449-9.0664c-2.2734-18.812-2.2734-37.852-0.015626-56.664 0 0 38.465-9.0664 38.465-9.0664 3.2383-0.76953 5.7578-3.3086 6.5117-6.5469 4.8477-20.895 13.109-40.844 24.465-59.027 1.75-2.8359 1.7656-6.4062 0.015625-9.2383l-20.789-33.602c11.707-14.91 25.148-28.367 40.074-40.074l33.602 20.789c2.8359 1.75 6.4062 1.7344 9.2383-0.015625 18.184-11.359 38.133-19.617 59.027-24.465 3.2383-0.75391 5.7734-3.2734 6.5469-6.5117l9.0664-38.465c18.812-2.2578 37.852-2.2578 56.664 0zm-28.332 76.336c-87.309 0-158.2 70.891-158.2 158.2s70.891 158.2 158.2 158.2 158.2-70.891 158.2-158.2-70.891-158.2-158.2-158.2zm0 17.5c77.648 0 140.7 63.051 140.7 140.7s-63.051 140.7-140.7 140.7-140.7-63.051-140.7-140.7 63.051-140.7 140.7-140.7zm16.031 50.398c-3.1133-0.33203-6.2812-0.48828-9.4688-0.48828-3.2031 0-6.3711 0.15625-9.4844 0.48828v-19.094c0-4.8281-3.9219-8.75-8.75-8.75s-8.75 3.9219-8.75 8.75v22.68c-36.961 11.516-63.824 45.988-63.824 86.711 0 37.293 22.539 69.352 54.703 83.316v26.074c0 4.8281 3.9219 8.75 8.75 8.75s8.75-3.9219 8.75-8.75v-20.512c6.0039 1.2617 12.215 1.9062 18.602 1.9062h0.35156v18.602c0 4.8281 3.9219 8.75 8.75 8.75s8.75-3.9219 8.75-8.75v-20.352c16.188-3.2383 30.836-10.781 42.684-21.387 3.5859-3.2188 3.9023-8.7656 0.66406-12.355-3.2188-3.6055-8.75-3.9023-12.355-0.68359-12.969 11.602-30.082 18.672-48.844 18.672-40.461 0-73.309-32.828-73.309-73.289 0-40.461 32.848-73.289 73.309-73.289 18.762 0 35.875 7.0703 48.844 18.672 3.6055 3.2188 9.1367 2.9219 12.355-0.68359 3.2383-3.5859 2.9219-9.1367-0.66406-12.355-9.5898-8.5742-20.984-15.137-33.566-19.059v-22.68c0-4.8281-3.9219-8.75-8.75-8.75s-8.75 3.9219-8.75 8.75v19.094z" fill-rule="evenodd"/>
</svg>
